PathFileType	4	(X/Y/Z)	C:/Users/opensim2020/Desktop/walking_exp_matlab/subject06_walking11_run.trc																																																																																																																																								
DataRate	CameraRate	NumFrames	NumMarkers	Units	OrigDataRate	OrigDataStartFrame	OrigNumFrames																																																																																																																																				
100	100	4	46	mm	100	186	106																																																																																																																																				
Frame#	Time	LKNE			RKNE			RFRM			RWRA			RWRB			RELB			RUPA			RSHO			LWRA			RFIN			RFHD			CLAV			RASI			RTHI			LSHO			LTHI			RBHD			C7			LTIB			LANK			LTOE			LBHD			RTIB			RBAK			LHEE			RANK			STRN			RHEE			RTOE			T10			LUPA			LFHD			LPSI			RPSI			LASI			LFRM			LWRB			LFIN			LELB			*39			*40			*41			*42			*43			*44			*45		
		X1	Y1	Z1	X2	Y2	Z2	X3	Y3	Z3	X4	Y4	Z4	X5	Y5	Z5	X6	Y6	Z6	X7	Y7	Z7	X8	Y8	Z8	X9	Y9	Z9	X10	Y10	Z10	X11	Y11	Z11	X12	Y12	Z12	X13	Y13	Z13	X14	Y14	Z14	X15	Y15	Z15	X16	Y16	Z16	X17	Y17	Z17	X18	Y18	Z18	X19	Y19	Z19	X20	Y20	Z20	X21	Y21	Z21	X22	Y22	Z22	X23	Y23	Z23	X24	Y24	Z24	X25	Y25	Z25	X26	Y26	Z26	X27	Y27	Z27	X28	Y28	Z28	X29	Y29	Z29	X30	Y30	Z30	X31	Y31	Z31	X32	Y32	Z32	X33	Y33	Z33	X34	Y34	Z34	X35	Y35	Z35	X36	Y36	Z36	X37	Y37	Z37	X38	Y38	Z38	X39	Y39	Z39	X40	Y40	Z40	X41	Y41	Z41	X42	Y42	Z42	X43	Y43	Z43	X44	Y44	Z44	X45	Y45	Z45	X46	Y46	Z46
																																																																																																																																											
1	0	96.82275	471.43835	2006.07166	363.46954	582.99432	1582.35107	496.24097	1121.78687	1840.82617	409.18701	1073.85083	1737.40161	449.27725	1025.32446	1759.54053	517.09686	1211.80774	1888.35205	473.42453	1290.89136	1822.15515	367.18921	1360.86218	1667.54993	97.0145	1133.34363	1584.96179	425.89548	1011.75391	1681.35022	288.39294	1567.28052	1523.12524	222.15285	1297.99792	1610.60669	321.96066	918.06708	1721.99158	388.84106	679.0921	1658.80554	59.23793	1351.27722	1635.03333	66.74885	619.12482	1933.78723	279.01385	1547.52747	1661.98059	203.92384	1403.96533	1694.58276	110.84885	299.20636	2198.92188	153.48335	178	2310.26416	200.53395	35.2336	2280.25024	149.77718	1547.79871	1655.33264	361.68652	329.60968	1635.60706	265.58078	1272.62097	1819.19983	192.99138	208.83948	2340.48291	318.54089	149.10577	1686.42139	219.12621	1116.99524	1634.66113	271.72006	130.79765	1729.08472	325.23706	85.2	1547.84265	201.9552	1106.85266	1835.59814	-42.41481	1183.63489	1689.86475	156.69746	1572.15759	1514.29126	133.06635	972.20068	1869.62634	299.28149	980.83569	1863.1897	109.92739	889.66913	1735.90906	3.39608	1060.97034	1635.62793	98.23331	1065.03577	1567.7085	144.96115	1114.99109	1508.55872	-77.39593	1091.50623	1728.3009	NaN	NaN	NaN	208.44054	1634.08459	1606.38403	NaN	NaN	NaN	NaN	NaN	NaN	NaN	NaN	NaN	NaN	NaN	NaN	NaN	NaN	NaN
2	0.01	96.27697	483.30148	1980.6626	364.51477	584.91888	1549.56531	496.15652	1130.98865	1808.68372	409.54266	1082.73401	1704.82751	449.78403	1034.38477	1726.97571	517.04749	1220.65417	1856.51794	473.58182	1299.19104	1789.01465	367.91318	1366.88489	1633.78809	99.11564	1143.88525	1548.51514	425.98596	1020.88623	1648.83325	291.56046	1571.53186	1488.21521	224.16939	1304.43445	1576.3634	321.95975	925.39624	1685.14136	389.58987	682.51721	1626.47778	62.15347	1358.02673	1598.12634	66.45295	627.55518	1901.23926	281.92984	1553.10205	1627.24695	205.34113	1410.22388	1659.44031	106.39941	314.33511	2166.35815	150.35187	185.93781	2288.05469	199.03336	41.26613	2273.0022	152.71307	1554.42981	1620.42908	362.27808	325.92142	1584.15991	264.10962	1280.27905	1782.65503	189.01733	222.52019	2310.64917	317.55307	142.20578	1619.05212	219.85426	1123.35571	1600.37219	271.08234	122.7289	1661.00977	319.06946	82.59993	1476.45068	199.84193	1112.84033	1798.95166	-41.56287	1192.00879	1650.20386	159.96397	1577.72168	1479.30981	130.88678	976.5528	1829.17273	296.43008	987.72253	1824.90369	111.02668	894.56195	1695.95129	4.99081	1070.60632	1596.39575	101.46569	1075.98438	1530.32031	148.73038	1127.52795	1472.70959	-77.91399	1099.41418	1688.25757	NaN	NaN	NaN	212.30769	1639.80225	1570.73389	NaN	NaN	NaN	NaN	NaN	NaN	NaN	NaN	NaN	NaN	NaN	NaN	NaN	NaN	NaN
3	0.02	96.41914	493.6929	1952.48352	365.44339	584.74841	1516.76831	496.27936	1138.23389	1775.33447	409.61414	1090.14709	1671.26587	449.86923	1041.80518	1693.1665	517.36133	1227.34192	1823.63025	474.08688	1305.65332	1755.06555	368.49347	1371.78296	1599.67566	101.15739	1152.32446	1512.14453	425.44592	1028.46533	1614.87671	294.51038	1574.98975	1453.69678	225.68477	1309.97412	1542.25378	323.02603	931.49884	1649.00562	390.42853	682.64661	1594.87622	64.95074	1363.87512	1561.75916	66.0209	635.26459	1867.69775	284.47296	1557.38708	1592.8335	206.60211	1415.30334	1624.74756	105.96384	321.59695	2145.53345	145.05658	199.23393	2254.21436	195.36891	52.65697	2254.12354	155.22552	1559.72913	1585.74475	362.93936	321.87314	1534.90662	262.8891	1287.25122	1746.55237	183.90512	236.13623	2279.14673	316.89401	136.40544	1555.57227	225.09267	1129.58447	1559.03308	271.22787	116.61994	1597.24939	312.47635	79.81818	1409.72449	198.37117	1118.49109	1762.00012	-40.70751	1199.63452	1611.50537	162.88951	1582.24268	1444.26563	128.93173	980.22144	1789.17078	294.06595	992.69409	1787.39001	112.13995	899.20587	1656.75098	6.82703	1078.24731	1558.27417	104.31264	1084.55359	1493.89636	151.88266	1136.95764	1437.68689	-78.29153	1106.12683	1648.88928	NaN	NaN	NaN	215.69341	1644.31287	1535.6499	NaN	NaN	NaN	NaN	NaN	NaN	NaN	NaN	NaN	NaN	NaN	NaN	NaN	NaN	NaN
4	0.03	96.95707	500.629	1919.3053	366.30875	582.41833	1484.05701	496.57916	1143.26318	1740.97083	409.58154	1095.84863	1636.72815	449.7652	1047.22375	1658.26965	518.18933	1231.77661	1789.88672	474.92172	1310.15173	1720.5592	369.07986	1375.60339	1565.26672	103.31056	1158.76123	1475.69861	424.80188	1034.24646	1580.07922	297.13757	1578.23706	1419.49951	226.9147	1314.40308	1507.79822	324.29257	935.69611	1613.3092	391.29181	680.08569	1563.44385	67.38553	1368.90747	1526.10022	64.46777	643.14587	1829.88245	286.57498	1560.90967	1558.65051	207.66959	1419.04382	1590.53235	106.29522	330.35587	2113.72852	143.66663	209.25475	2230.03931	192.68871	63.11903	2231.21802	157.36012	1564.07861	1551.17773	363.85333	317.26166	1488.03125	261.88861	1293.05627	1710.89783	180.58789	248.6864	2249.6582	316.54233	131.31918	1496.646	226.53903	1134.07336	1522.43689	271.72781	111.50357	1538.2738	305.80865	76.93066	1348.31982	197.52083	1123.6825	1724.85962	-39.88233	1206.0481	1573.46533	165.41101	1586.3407	1409.72241	127.53679	983.90881	1750.19543	292.54886	995.60419	1750.6853	113.27982	903.11334	1617.90356	7.9731	1083.98132	1520.66248	107.13863	1090.7926	1458.24341	154.58646	1143.60156	1402.71533	-78.83752	1111.55981	1610.71228	NaN	NaN	NaN	218.54471	1648.05603	1501.09033	NaN	NaN	NaN	NaN	NaN	NaN	NaN	NaN	NaN	NaN	NaN	NaN	NaN	NaN	NaN
